<svg xmlns="http://www.w3.org/2000/svg" version="1.1" xmlns:xlink="http://www.w3.org/1999/xlink" width="1500" height="1500" viewBox="0 0 1500 1500"><rect width="1500" height="1500" x="0" y="0" id="background" stroke="transparent" fill="#212024"></rect><svg xml:space="preserve" width="1000" height="1000" data-version="2" data-id="lg_jmWDryc5rxcaY2KtCe" viewBox="0 0 555 143" x="250" y="250"><rect width="100%" height="100%" fill="transparent"></rect><path fill="#fff" d="m87.375 137.755-32.7-54.84h-13.32q-2.94 0-4.58-2.34-1.65-2.33-1.65-6.31 0-8.82 7.27-8.82h20.24q6.4 0 9-3.64 2.59-3.63 2.59-7.96v-22.31q0-4.33-2.59-7.96-2.6-3.63-9-3.63h-36.5v112.79q0 8.31-10.21 8.31t-10.21-8.31V12.845q0-6.22 3.2-8.3 3.2-2.08 7.7-2.08h50.34q4.5 0 9.35 1.91 4.84 1.9 9.34 4.84h-.17q4.49 3.29 6.92 8.56 2.42 5.28 2.42 12.2v25.26q0 14.01-9.34 20.93-1.91 1.39-4.07 2.6-2.16 1.21-4.41 2.42l27.68 45.67q.52.87 1.04 2.25t.52 2.25q0 4.15-5.89 7.96v-.18q-3.98 2.43-6.74 2.43-3.98 0-6.4-3.98zm62.62-135.29h37.72q4.5 0 9.34 1.91 4.84 1.9 9.34 4.84h-.17q4.5 3.29 6.92 8.56 2.42 5.28 2.42 12.2v82.18q0 14.01-9.34 20.93-4.5 3.29-9.26 5.1-4.75 1.82-9.25 1.82h-37.72q-4.49 0-9.25-1.82-4.76-1.81-9.26-5.1-4.49-3.46-6.92-8.56-2.42-5.11-2.42-12.37v-82.18q0-6.92 2.42-12.2 2.43-5.27 6.92-8.56h-.17q4.5-2.94 9.34-4.84 4.85-1.91 9.34-1.91m4.33 120.07h29.06q6.4 0 9-3.64 2.59-3.63 2.59-8.13v-79.23q0-4.33-2.59-7.96-2.6-3.63-9-3.63h-29.06q-6.4 0-9 3.63-2.59 3.63-2.59 7.96v79.23q0 4.5 2.59 8.13 2.6 3.64 9 3.64m128.02 18.16q-3.46 0-7.35-1.12-3.9-1.13-5.63-4.24-3.97-13.5-8.3-27.68-4.32-14.19-8.65-27.86-4.84-16.08-10.38-33.47-5.54-17.39-10.38-33.3-1.04-3.81 1.21-6.66 2.25-2.86 6.4-4.24 2.6-.69 4.5-.69 5.88 0 7.61 5.88l12.8 41q1.73 6.23 4.07 13.67 2.34 7.43 4.76 15.22 2.42 7.78 4.84 15.48t4.5 14.28q3.29-10.9 7.18-23.62 3.89-12.71 7.96-25.86l8.04-26.04q3.98-12.89 7.44-24.13 1.9-5.88 7.44-5.88 2.08 0 4.84.69 9.52 2.59 7.44 10.9-9.34 30.27-18.85 61.07-9.52 30.79-18.86 61.24-1.39 3.46-5.1 4.41-3.72.95-7.53.95m141.17-.69h-63.32q-6.4 0-8.65-3.29t-2.25-7.26V12.845q0-3.98 2.25-7.18 2.25-3.2 8.65-3.2h60.2q6.4 0 6.75 8.65.35 8.83-6.75 8.83h-50.69v102.59h53.81q6.4 0 6.57 8.47.35 9-6.57 9m-9.52-71.62q0 6.05-4.24 10.2-4.23 4.16-10.29 4.16-5.88 0-10.03-4.16-4.16-4.15-4.16-10.2 0-6.06 4.16-10.21 4.15-4.15 10.03-4.15 6.06 0 10.29 4.15 4.24 4.15 4.24 10.21m116.43 69.37-32.7-54.84h-13.32q-2.94 0-4.58-2.34-1.64-2.33-1.64-6.31 0-8.82 7.26-8.82h20.24q6.4 0 9-3.64 2.59-3.63 2.59-7.96v-22.31q0-4.33-2.59-7.96-2.6-3.63-9-3.63h-36.5v112.79q0 8.31-10.21 8.31-10.2 0-10.2-8.31V12.845q0-6.22 3.2-8.3 3.2-2.08 7.69-2.08h50.35q4.5 0 9.34 1.91 4.84 1.9 9.34 4.84h-.17q4.5 3.29 6.92 8.56 2.42 5.28 2.42 12.2v25.26q0 14.01-9.34 20.93-1.9 1.39-4.07 2.6-2.16 1.21-4.41 2.42l27.68 45.67q.52.87 1.04 2.25t.52 2.25q0 4.15-5.88 7.96v-.18q-3.98 2.43-6.75 2.43-3.98 0-6.4-3.98z"></path></svg></svg>